<mxfile host="app.diagrams.net" modified="2022-05-18T06:57:15.317Z" agent="5.0 (Windows NT 10.0; Win64; x64) AppleWebKit/537.36 (KHTML, like Gecko) Chrome/101.0.4951.54 Safari/537.36 Edg/101.0.1210.39" etag="GrMkKBqxdroQflqnlKk7" version="18.0.7" type="github">
  <diagram id="aixKUTCiRUJAxCC-HUBI" name="Page-1">
    <mxGraphModel dx="2249" dy="754" grid="1" gridSize="10" guides="1" tooltips="1" connect="1" arrows="1" fold="1" page="1" pageScale="1" pageWidth="827" pageHeight="1169" math="0" shadow="0">
      <root>
        <mxCell id="0" />
        <mxCell id="1" parent="0" />
        <mxCell id="vUqEEb1im0xgOfGCbzWA-6" style="edgeStyle=orthogonalEdgeStyle;rounded=0;orthogonalLoop=1;jettySize=auto;html=1;exitX=0.5;exitY=1;exitDx=0;exitDy=0;entryX=0.5;entryY=0;entryDx=0;entryDy=0;" edge="1" parent="1" source="vUqEEb1im0xgOfGCbzWA-1">
          <mxGeometry relative="1" as="geometry">
            <mxPoint x="270" y="380" as="targetPoint" />
          </mxGeometry>
        </mxCell>
        <mxCell id="vUqEEb1im0xgOfGCbzWA-1" value="Keyboard" style="rounded=0;whiteSpace=wrap;html=1;" vertex="1" parent="1">
          <mxGeometry x="140" y="140" width="120" height="60" as="geometry" />
        </mxCell>
        <mxCell id="vUqEEb1im0xgOfGCbzWA-7" style="edgeStyle=orthogonalEdgeStyle;rounded=0;orthogonalLoop=1;jettySize=auto;html=1;exitX=0.5;exitY=1;exitDx=0;exitDy=0;" edge="1" parent="1" source="vUqEEb1im0xgOfGCbzWA-2">
          <mxGeometry relative="1" as="geometry">
            <mxPoint x="270" y="380" as="targetPoint" />
          </mxGeometry>
        </mxCell>
        <mxCell id="vUqEEb1im0xgOfGCbzWA-2" value="Guitar1" style="rounded=0;whiteSpace=wrap;html=1;" vertex="1" parent="1">
          <mxGeometry x="294" y="140" width="120" height="60" as="geometry" />
        </mxCell>
        <mxCell id="vUqEEb1im0xgOfGCbzWA-8" style="edgeStyle=orthogonalEdgeStyle;rounded=0;orthogonalLoop=1;jettySize=auto;html=1;exitX=0.5;exitY=1;exitDx=0;exitDy=0;" edge="1" parent="1" source="vUqEEb1im0xgOfGCbzWA-3">
          <mxGeometry relative="1" as="geometry">
            <mxPoint x="270" y="380" as="targetPoint" />
          </mxGeometry>
        </mxCell>
        <mxCell id="vUqEEb1im0xgOfGCbzWA-3" value="Base" style="rounded=0;whiteSpace=wrap;html=1;" vertex="1" parent="1">
          <mxGeometry x="440" y="140" width="120" height="60" as="geometry" />
        </mxCell>
        <mxCell id="vUqEEb1im0xgOfGCbzWA-13" style="edgeStyle=orthogonalEdgeStyle;rounded=0;orthogonalLoop=1;jettySize=auto;html=1;exitX=0.5;exitY=1;exitDx=0;exitDy=0;entryX=0.5;entryY=0;entryDx=0;entryDy=0;" edge="1" parent="1" source="vUqEEb1im0xgOfGCbzWA-4" target="vUqEEb1im0xgOfGCbzWA-12">
          <mxGeometry relative="1" as="geometry" />
        </mxCell>
        <mxCell id="vUqEEb1im0xgOfGCbzWA-16" value="microphone" style="edgeLabel;html=1;align=center;verticalAlign=middle;resizable=0;points=[];" vertex="1" connectable="0" parent="vUqEEb1im0xgOfGCbzWA-13">
          <mxGeometry x="0.824" y="3" relative="1" as="geometry">
            <mxPoint as="offset" />
          </mxGeometry>
        </mxCell>
        <mxCell id="vUqEEb1im0xgOfGCbzWA-4" value="Vocal" style="rounded=0;whiteSpace=wrap;html=1;" vertex="1" parent="1">
          <mxGeometry x="590" y="140" width="120" height="60" as="geometry" />
        </mxCell>
        <mxCell id="vUqEEb1im0xgOfGCbzWA-11" style="edgeStyle=orthogonalEdgeStyle;rounded=0;orthogonalLoop=1;jettySize=auto;html=1;exitX=0.5;exitY=1;exitDx=0;exitDy=0;" edge="1" parent="1" source="vUqEEb1im0xgOfGCbzWA-9" target="vUqEEb1im0xgOfGCbzWA-10">
          <mxGeometry relative="1" as="geometry" />
        </mxCell>
        <mxCell id="vUqEEb1im0xgOfGCbzWA-9" value="Mixer" style="rounded=0;whiteSpace=wrap;html=1;" vertex="1" parent="1">
          <mxGeometry x="210" y="380" width="120" height="60" as="geometry" />
        </mxCell>
        <mxCell id="vUqEEb1im0xgOfGCbzWA-18" style="edgeStyle=orthogonalEdgeStyle;rounded=0;orthogonalLoop=1;jettySize=auto;html=1;entryX=0.5;entryY=0;entryDx=0;entryDy=0;" edge="1" parent="1" source="vUqEEb1im0xgOfGCbzWA-10" target="vUqEEb1im0xgOfGCbzWA-17">
          <mxGeometry relative="1" as="geometry" />
        </mxCell>
        <mxCell id="vUqEEb1im0xgOfGCbzWA-10" value="声卡Input1" style="rounded=0;whiteSpace=wrap;html=1;" vertex="1" parent="1">
          <mxGeometry x="250" y="500" width="120" height="60" as="geometry" />
        </mxCell>
        <mxCell id="vUqEEb1im0xgOfGCbzWA-19" style="edgeStyle=orthogonalEdgeStyle;rounded=0;orthogonalLoop=1;jettySize=auto;html=1;entryX=0.5;entryY=0;entryDx=0;entryDy=0;" edge="1" parent="1" source="vUqEEb1im0xgOfGCbzWA-12" target="vUqEEb1im0xgOfGCbzWA-17">
          <mxGeometry relative="1" as="geometry" />
        </mxCell>
        <mxCell id="vUqEEb1im0xgOfGCbzWA-12" value="声卡Input2" style="rounded=0;whiteSpace=wrap;html=1;" vertex="1" parent="1">
          <mxGeometry x="390" y="500" width="120" height="60" as="geometry" />
        </mxCell>
        <mxCell id="vUqEEb1im0xgOfGCbzWA-15" style="edgeStyle=orthogonalEdgeStyle;rounded=0;orthogonalLoop=1;jettySize=auto;html=1;exitX=0.5;exitY=1;exitDx=0;exitDy=0;entryX=0.5;entryY=0;entryDx=0;entryDy=0;" edge="1" parent="1" source="vUqEEb1im0xgOfGCbzWA-14" target="vUqEEb1im0xgOfGCbzWA-9">
          <mxGeometry relative="1" as="geometry" />
        </mxCell>
        <mxCell id="vUqEEb1im0xgOfGCbzWA-14" value="PC1" style="rounded=0;whiteSpace=wrap;html=1;" vertex="1" parent="1">
          <mxGeometry x="-10" y="140" width="120" height="60" as="geometry" />
        </mxCell>
        <mxCell id="vUqEEb1im0xgOfGCbzWA-22" style="edgeStyle=orthogonalEdgeStyle;rounded=0;orthogonalLoop=1;jettySize=auto;html=1;entryX=0;entryY=0.5;entryDx=0;entryDy=0;" edge="1" parent="1" source="vUqEEb1im0xgOfGCbzWA-17" target="vUqEEb1im0xgOfGCbzWA-21">
          <mxGeometry relative="1" as="geometry" />
        </mxCell>
        <mxCell id="vUqEEb1im0xgOfGCbzWA-17" value="PC2" style="rounded=0;whiteSpace=wrap;html=1;" vertex="1" parent="1">
          <mxGeometry x="320" y="600" width="120" height="60" as="geometry" />
        </mxCell>
        <mxCell id="vUqEEb1im0xgOfGCbzWA-24" style="edgeStyle=orthogonalEdgeStyle;rounded=0;orthogonalLoop=1;jettySize=auto;html=1;exitX=0.5;exitY=1;exitDx=0;exitDy=0;entryX=0.5;entryY=0;entryDx=0;entryDy=0;" edge="1" parent="1" source="vUqEEb1im0xgOfGCbzWA-21" target="vUqEEb1im0xgOfGCbzWA-23">
          <mxGeometry relative="1" as="geometry" />
        </mxCell>
        <mxCell id="vUqEEb1im0xgOfGCbzWA-21" value="声卡Output" style="rounded=0;whiteSpace=wrap;html=1;" vertex="1" parent="1">
          <mxGeometry x="510" y="600" width="120" height="60" as="geometry" />
        </mxCell>
        <mxCell id="vUqEEb1im0xgOfGCbzWA-23" value="Speaker" style="rounded=0;whiteSpace=wrap;html=1;" vertex="1" parent="1">
          <mxGeometry x="510" y="700" width="120" height="60" as="geometry" />
        </mxCell>
      </root>
    </mxGraphModel>
  </diagram>
</mxfile>
